<svg width="72" height="32" viewBox="0 0 72 32" fill="none" xmlns="http://www.w3.org/2000/svg">
<g clip-path="url(#clip0_5_25021)">
<rect width="72" height="32" rx="16" fill="white"/>
<g opacity="0.7">
<path fill-rule="evenodd" clip-rule="evenodd" d="M21 6V7V9V10H19V9V7V6H21ZM10 15H11H13H14V17H13H11H10V15ZM27 15H26V17H27H29H30V15H29H27ZM21 22V23V25V26H19V25V23V22H21ZM25.6568 23.0711L26.364 23.7782L27.7782 22.364L27.0711 21.6569L25.6568 20.2427L24.9497 19.5356L23.5355 20.9498L24.2426 21.6569L25.6568 23.0711ZM15.0502 12.4645L14.3431 11.7574L12.9289 10.3432L12.2218 9.63608L13.636 8.22187L14.3431 8.92897L15.7573 10.3432L16.4644 11.0503L15.0502 12.4645ZM27.0711 10.3431L27.7782 9.63599L26.364 8.22177L25.6568 8.92888L24.2426 10.3431L23.5355 11.0502L24.9497 12.4644L25.6568 11.7573L27.0711 10.3431ZM16.4644 20.9497L15.7573 21.6568L14.3431 23.071L13.636 23.7781L12.2218 22.3639L12.9289 21.6568L14.3431 20.2426L15.0502 19.5355L16.4644 20.9497ZM18 16C18 14.8954 18.8954 14 20 14C21.1046 14 22 14.8954 22 16C22 17.1046 21.1046 18 20 18C18.8954 18 18 17.1046 18 16ZM20 12C17.7909 12 16 13.7909 16 16C16 18.2091 17.7909 20 20 20C22.2091 20 24 18.2091 24 16C24 13.7909 22.2091 12 20 12Z" fill="#4B5EFC"/>
</g>
<circle cx="56" cy="16" r="12" fill="#D2D3DA"/>
</g>
<defs>
<clipPath id="clip0_5_25021">
<rect width="72" height="32" rx="16" fill="white"/>
</clipPath>
</defs>
</svg>
