<svg width="72" height="32" viewBox="0 0 72 32" fill="none" xmlns="http://www.w3.org/2000/svg">
<g clip-path="url(#clip0_5_25016)">
<rect width="72" height="32" rx="16" fill="#2E2F38"/>
<g opacity="0.7">
<path fill-rule="evenodd" clip-rule="evenodd" d="M48.0324 10.2319C46.2001 11.4947 45 13.608 45 15.9999C45 19.8659 48.134 22.9999 52 22.9999C54.3918 22.9999 56.5049 21.8 57.7678 19.9678C57.5146 19.9893 57.2585 20.0002 57 20.0002C52.0294 20.0002 48 15.9708 48 11.0002C48 10.7415 48.0109 10.4852 48.0324 10.2319ZM43 15.9999C43 12.0417 45.5546 8.68279 49.1021 7.47693L50.3707 8.74561C50.1306 9.45177 50 10.2097 50 11.0002C50 14.8662 53.134 18.0002 57 18.0002C57.7904 18.0002 58.5482 17.8696 59.2542 17.6296L60.5228 18.8983C59.3168 22.4455 55.958 24.9999 52 24.9999C47.0294 24.9999 43 20.9705 43 15.9999Z" fill="#4B5EFC"/>
</g>
<circle cx="16" cy="16" r="12" fill="#4E505F"/>
</g>
<defs>
<clipPath id="clip0_5_25016">
<rect width="72" height="32" rx="16" fill="white"/>
</clipPath>
</defs>
</svg>
